<svg width="16" height="18" viewBox="0 0 16 18" fill="none" xmlns="http://www.w3.org/2000/svg">
<path fill-rule="evenodd" clip-rule="evenodd" d="M13.6186 0.26102C14.0846 0.434027 14.5078 0.687899 14.8636 1.00801C15.2238 1.32708 15.5098 1.70696 15.7048 2.12562C15.8999 2.54428 16.0003 2.9934 16 3.447V14.553C15.9974 15.4665 15.5907 16.3418 14.8689 16.9878C14.1472 17.6337 13.1691 17.9977 12.1483 18H3.87178C3.3638 18.0012 2.86056 17.9127 2.39087 17.7395C1.92119 17.5664 1.49429 17.312 1.13462 16.991C0.774969 16.67 0.489614 16.2886 0.294919 15.8686C0.100214 15.4488 0 14.9986 0 14.544V3.447C0.00131741 2.99315 0.102517 2.544 0.297805 2.12515C0.493094 1.7063 0.77865 1.32598 1.13818 1.0059C1.4977 0.685811 1.92416 0.432236 2.39319 0.259653C2.86223 0.0870597 3.36465 -0.00116734 3.87178 1.16621e-05H12.1483C12.6529 -0.000699337 13.1526 0.0880136 13.6186 0.26102ZM4.58135 10.1811C4.41597 10.2799 4.22154 10.3327 4.02264 10.3327C3.75592 10.3327 3.50013 10.2379 3.31153 10.0691C3.12293 9.90026 3.01698 9.6714 3.01698 9.43272C3.01698 9.25469 3.07595 9.08064 3.18646 8.93268C3.29697 8.78472 3.45403 8.66934 3.63778 8.60121C3.82155 8.53308 4.02374 8.51526 4.21883 8.55C4.41391 8.58474 4.5931 8.67042 4.73374 8.79633C4.87438 8.92215 4.97017 9.08253 5.00897 9.25713C5.04777 9.43173 5.02785 9.61263 4.95174 9.77714C4.87563 9.94158 4.74673 10.0822 4.58135 10.1811ZM8.04525 10.35C8.24417 10.35 8.43857 10.2973 8.604 10.1983C8.76933 10.0994 8.89825 9.95885 8.97438 9.79443C9.05051 9.63 9.07042 9.44901 9.0316 9.27441C8.99278 9.09981 8.89705 8.93952 8.75635 8.81361C8.61576 8.6877 8.43655 8.60202 8.24146 8.56728C8.04636 8.53254 7.84412 8.55036 7.66039 8.61849C7.47666 8.68662 7.31957 8.802 7.20905 8.94996C7.09853 9.09801 7.0396 9.27198 7.0396 9.45C7.0396 9.68867 7.14559 9.91763 7.33415 10.0864C7.52271 10.2551 7.77855 10.35 8.04525 10.35ZM12.7032 10.1983C12.5378 10.2973 12.3433 10.35 12.1444 10.35C11.8777 10.35 11.622 10.2551 11.4333 10.0864C11.2448 9.91763 11.1388 9.68867 11.1388 9.45C11.1388 9.27198 11.1978 9.09801 11.3083 8.94996C11.4187 8.802 11.5758 8.68662 11.7595 8.61849C11.9434 8.55036 12.1455 8.53254 12.3406 8.56728C12.5357 8.60202 12.7149 8.6877 12.8555 8.81361C12.9962 8.93952 13.0919 9.09981 13.1308 9.27441C13.1696 9.44901 13.1497 9.63 13.0735 9.79443C12.9974 9.95885 12.8685 10.0994 12.7032 10.1983ZM4.02262 15.021C4.22152 15.021 4.41595 14.9683 4.58133 14.8693C4.74671 14.7704 4.87561 14.6299 4.95172 14.4654C5.02784 14.301 5.04775 14.12 5.00894 13.9454C4.97015 13.7708 4.87437 13.6104 4.73373 13.4846C4.59308 13.3587 4.41389 13.273 4.21881 13.2383C4.02373 13.2035 3.82153 13.2214 3.63777 13.2895C3.45401 13.3576 3.29694 13.473 3.18644 13.621C3.07594 13.769 3.01696 13.943 3.01696 14.121C3.01696 14.3597 3.12292 14.5886 3.31151 14.7574C3.50011 14.9261 3.7559 15.021 4.02262 15.021ZM8.604 14.8693C8.43857 14.9683 8.24417 15.021 8.04525 15.021C7.77855 15.021 7.52271 14.9261 7.33415 14.7574C7.14559 14.5886 7.0396 14.3597 7.0396 14.121C7.0396 13.943 7.09853 13.769 7.20905 13.621C7.31957 13.473 7.47666 13.3576 7.66039 13.2895C7.84412 13.2214 8.04636 13.2035 8.24146 13.2383C8.43655 13.273 8.61576 13.3587 8.75635 13.4846C8.89705 13.6104 8.99278 13.7708 9.0316 13.9454C9.07042 14.12 9.05051 14.301 8.97438 14.4654C8.89825 14.6299 8.76933 14.7704 8.604 14.8693ZM12.0679 15.021C12.2668 15.021 12.4612 14.9683 12.6266 14.8693C12.792 14.7704 12.9209 14.6299 12.997 14.4654C13.0731 14.301 13.093 14.12 13.0542 13.9454C13.0154 13.7708 12.9196 13.6104 12.779 13.4846C12.6383 13.3587 12.4592 13.273 12.2641 13.2383C12.069 13.2035 11.8667 13.2214 11.683 13.2895C11.4993 13.3576 11.3422 13.473 11.2317 13.621C11.1212 13.769 11.0622 13.943 11.0622 14.121C11.0622 14.3597 11.1681 14.5886 11.3568 14.7574C11.5453 14.9261 11.8012 15.021 12.0679 15.021ZM4.57574 3.429H11.5148C12.3756 3.429 13.0735 4.05356 13.0735 4.824C13.0735 5.59443 12.3756 6.219 11.5148 6.219H4.57574C3.71486 6.219 3.01697 5.59443 3.01697 4.824C3.01697 4.05356 3.71486 3.429 4.57574 3.429Z" fill="#201F29"/>
</svg>
